<?xml version="1.0" encoding="utf-8"?>
<!-- Generator: Adobe Illustrator 24.0.1, SVG Export Plug-In . SVG Version: 6.00 Build 0)  -->
<svg version="1.1" id="Capa_1" xmlns="http://www.w3.org/2000/svg" xmlns:xlink="http://www.w3.org/1999/xlink" x="0px" y="0px"
	 viewBox="0 0 45.63 49.04" style="enable-background:new 0 0 45.63 49.04;" xml:space="preserve">
<style type="text/css">
	.st0{fill:#00BC00;}
</style>
<path class="st0" d="M31.42,4.73h-20c-2.04,0-3.7,1.66-3.7,3.7v29.25c0,2.04,1.66,3.7,3.7,3.7h2.37v-2.42h-2.37
	c-0.71,0-1.28-0.58-1.28-1.28V12.37H32.7v11.78h2.42V8.43C35.12,6.39,33.46,4.73,31.42,4.73z M32.7,9.95H10.14V8.43
	c0-0.71,0.58-1.28,1.28-1.28h20c0.71,0,1.28,0.58,1.28,1.28V9.95z M32.18,26.36c-0.25,0-0.49,0.02-0.71,0.07
	c-0.29-1.02-1.16-1.88-2.72-1.88c-0.28,0-0.55,0.03-0.79,0.08c-0.57-1.18-1.92-1.9-3.13-1.7v-4.89c0-1.95-1.29-3.32-3.13-3.32
	c-1.82,0-3.09,1.29-3.09,3.13V28l-0.71-0.81l-0.06-0.06c-0.1-0.1-1.03-0.99-2.29-0.99c-1.53,0-3.17,0.96-3.17,3.06
	c0,1.72,1.1,3.07,1.43,3.43l5.94,8.59c0.01,0.68,0.01,2.14,0.01,3.24v1.21h12.86V41.5c0-0.04,0.01-0.1,0.06-0.14
	c0.91-0.82,2.43-2.54,2.43-4.93v-7.01C35.12,27.53,33.99,26.36,32.18,26.36z M32.7,36.42c0,1.45-1.02,2.59-1.63,3.14
	c-0.55,0.49-0.86,1.2-0.86,1.94v1.74h-8.02c-0.01-1.22-0.01-2.42-0.01-2.42l0-0.37l-6.41-9.27l-0.12-0.15
	c-0.23-0.25-0.83-1.05-0.83-1.84c0-0.24,0-0.64,0.75-0.64c0.17,0,0.43,0.16,0.56,0.27l4.91,5.63v-16.6c0-0.33,0.08-0.71,0.68-0.71
	c0.31,0,0.71,0.09,0.71,0.9v7.21c-0.02,0.14-0.04,0.29-0.04,0.45c0,0.65,0.02,1.12,0.05,1.33l2.4-0.2v-1.25
	c0.08-0.13,0.27-0.25,0.41-0.25c0.2,0,0.56,0.29,0.56,0.45v2.9h2.42v-1.43c0-0.1,0-0.26,0.52-0.26c0.29,0,0.37,0.06,0.37,0.06
	c0.01,0.01,0.04,0.08,0.04,0.2c0,0.27,0.02,1.13,0.04,1.93v0.03c0,0.91,0.04,1.55,0.04,1.55l2.42-0.11c0,0-0.02-0.71-0.04-1.48
	c0-0.19,0.04-0.36,0.56-0.36c0.41,0,0.52,0,0.52,0.64V36.42z"/>
</svg>
