<?xml version="1.0" encoding="utf-8"?>
<!-- Generator: Adobe Illustrator 24.0.1, SVG Export Plug-In . SVG Version: 6.00 Build 0)  -->
<svg version="1.1" id="Layer_1" xmlns="http://www.w3.org/2000/svg" xmlns:xlink="http://www.w3.org/1999/xlink" x="0px" y="0px"
	 viewBox="0 0 595.28 505" style="enable-background:new 0 0 595.28 505;" xml:space="preserve">
<style type="text/css">
	.st0{fill:#E6312A;}
	.st1{fill:#FEDA00;}
	.st2{fill:#65B54C;}
	.st3{fill:#60AC48;}
	.st4{fill:#FFFFFF;}
	.st5{fill:url(#SVGID_1_);}
	.st6{fill:#F1CF00;}
	.st7{fill:#DA3027;}
</style>
<g>
	<path class="st0" d="M305.2,23.84c0,0,128.48-5.78,196.57,123.34c-35.97,0-207.5,0-207.5,0s-39.19-1.29-72.59,46.26
		c-9.63,19.92-19.91,40.47-8.35,80.94c-16.7-28.26-88.65-153.53-88.65-153.53S175.44,28.98,305.2,23.84z"/>
	<path class="st1" d="M495.09,351.67c0,0-59.25,114.14-205.12,108.53c18-31.15,103.77-179.68,103.77-179.68s20.71-33.29-3.74-85.99
		c-12.43-18.3-25.09-37.49-65.92-47.71c32.84-0.33,177.29,0.02,177.29,0.02S555.53,236.73,495.09,351.67z"/>
	<path class="st2" d="M116.24,352.54c0,0-69.22-108.39,8.58-231.91c17.98,31.16,103.71,179.72,103.71,179.72
		s18.47,34.58,76.34,39.76c22.06-1.61,45.01-2.98,74.28-33.22c-16.14,28.59-88.67,153.52-88.67,153.52S185.54,462.36,116.24,352.54z
		"/>
	<path class="st3" d="M289.97,461.26l29.19-121.79c0,0,32.09-2.5,58.98-32.02C361.44,336.82,289.97,461.26,289.97,461.26z"/>
	<path class="st4" d="M207.45,243.89c0-53.69,43.52-97.21,97.21-97.21c53.69,0,97.21,43.52,97.21,97.21
		c0,53.69-43.52,97.22-97.21,97.22C250.97,341.11,207.45,297.59,207.45,243.89z"/>
	<linearGradient id="SVGID_1_" gradientUnits="userSpaceOnUse" x1="304.6655" y1="164.0967" x2="304.6655" y2="319.9945">
		<stop  offset="0" style="stop-color:#96C1E9"/>
		<stop  offset="1" style="stop-color:#146CB5"/>
	</linearGradient>
	<path class="st5" d="M223.72,243.89c0-44.7,36.24-80.94,80.95-80.94c44.7,0,80.94,36.24,80.94,80.94
		c0,44.7-36.24,80.94-80.94,80.94C259.96,324.84,223.72,288.6,223.72,243.89z"/>
	<path class="st6" d="M501.36,146.84l-120.18,35.24c0,0-18.12-26.6-57.1-35.26C357.85,146.7,501.36,146.84,501.36,146.84z"/>
	<path class="st7" d="M211,270c-16.89-29.25-86.31-149.16-86.31-149.16l89.03,88.07c0,0-9.15,18.82-5.68,45.7L211,270z"/>
</g>
</svg>
