<?xml version="1.0" encoding="utf-8"?>
<!-- Generator: Adobe Illustrator 24.0.0, SVG Export Plug-In . SVG Version: 6.00 Build 0)  -->
<svg version="1.1" id="Capa_1" xmlns="http://www.w3.org/2000/svg" xmlns:xlink="http://www.w3.org/1999/xlink" x="0px" y="0px"
	 viewBox="0 0 74.21 72.5" style="enable-background:new 0 0 74.21 72.5;" xml:space="preserve">
<style type="text/css">
	.st0{fill:#00BC00;}
</style>
<g>
	<path class="st0" d="M60.17,15.75h-45c-2.67,0-4.84,2.17-4.84,4.84v29c0,2.67,2.17,4.84,4.84,4.84h20.5v1.75h-5.88
		c-1.1,0-2,0.9-2,2s0.9,2,2,2h15.62c1.1,0,2-0.9,2-2s-0.9-2-2-2h-5.75v-1.75h20.5c2.67,0,4.84-2.17,4.84-4.84v-29
		C65,17.91,62.83,15.75,60.17,15.75z M14.34,20.58c0-0.46,0.37-0.84,0.84-0.84h45c0.46,0,0.83,0.38,0.83,0.84v29
		c0,0.46-0.38,0.84-0.83,0.84h-45c-0.46,0-0.84-0.38-0.84-0.84V20.58z"/>
</g>
</svg>
