<?xml version="1.0" encoding="utf-8"?>
<!-- Generator: Adobe Illustrator 24.0.1, SVG Export Plug-In . SVG Version: 6.00 Build 0)  -->
<svg version="1.1" id="Capa_1" xmlns="http://www.w3.org/2000/svg" xmlns:xlink="http://www.w3.org/1999/xlink" x="0px" y="0px"
	 viewBox="0 0 327 82" style="enable-background:new 0 0 327 82;" xml:space="preserve">
<style type="text/css">
	.st0{fill:#606060;}
	.st1{fill:#00BC00;}
</style>
<g>
	<path class="st0" d="M25.36,24.75c0.07,1.83-1.08,3.05-2.85,3.05c-1.52,0.01-2.68-1.21-2.69-3.03c-0.01-1.82,1.2-3.05,2.72-3.05
		C24.25,21.71,25.35,22.93,25.36,24.75z M20.47,61.83l-0.13-29.45l4.69-0.02l0.13,29.45L20.47,61.83z"/>
	<path class="st0" d="M30.85,56.91c1.04,0.66,2.87,1.51,4.75,1.5c2.68-0.01,4.31-1.66,4.3-4.28c-0.01-2.25-0.81-3.77-3.8-5.76
		c-3.84-2.48-5.92-4.96-5.94-8.37c-0.02-4.75,3.49-8.17,8.06-8.19c2.31-0.01,4.08,0.77,5.3,1.5l-1.26,3.53
		c-1.1-0.73-2.38-1.27-3.9-1.26c-2.56,0.01-3.82,1.84-3.82,3.73c0.01,2.01,0.74,3.1,3.67,5.09c3.42,2.18,6.11,4.84,6.12,8.92
		c0.03,5.9-3.98,8.78-8.78,8.8c-2.19,0.01-4.57-0.65-5.85-1.68L30.85,56.91z"/>
	<path class="st0" d="M64.35,24.4l0.03,7.79l5.66-0.02l0.01,3.59l-5.66,0.02l0.07,17.46c0.02,3.83,1.42,4.86,3.13,4.85
		c0.73,0,1.34-0.07,1.88-0.19l0.2,3.59c-0.85,0.31-1.94,0.49-3.47,0.5c-1.83,0.01-3.47-0.47-4.63-1.75
		c-1.16-1.33-1.78-3.34-1.8-7.41L59.71,35.8l-3.59,0.02l-0.01-3.59l3.59-0.02l-0.03-6.45L64.35,24.4z"/>
	<path class="st0" d="M74.12,19.49l4.69-0.02l0.07,15.82l0.12,0c0.6-1.04,1.51-1.95,2.42-2.57c1.09-0.67,2.25-1.11,3.95-1.11
		c3.71-0.02,6.89,2.95,6.92,10.37l0.08,19.53l-4.69,0.02l-0.08-18.98c-0.02-3.59-0.82-6.99-3.99-6.98c-2.19,0.01-3.82,1.6-4.54,4.7
		c-0.12,0.67-0.18,1.52-0.17,2.25l0.08,19.04l-4.69,0.02L74.12,19.49z"/>
	<path class="st0" d="M103.83,24.41c0.07,1.82-1.08,3.05-2.85,3.05c-1.52,0.01-2.68-1.21-2.69-3.03c-0.01-1.82,1.2-3.05,2.72-3.05
		C102.72,21.38,103.82,22.59,103.83,24.41z M98.94,61.48l-0.13-29.45l4.68-0.02l0.13,29.45L98.94,61.48z"/>
	<path class="st0" d="M109.32,56.57c1.04,0.67,2.87,1.51,4.75,1.5c2.68-0.01,4.31-1.66,4.3-4.28c-0.01-2.25-0.81-3.77-3.8-5.76
		c-3.84-2.48-5.92-4.96-5.94-8.37c-0.02-4.75,3.49-8.17,8.06-8.19c2.31-0.01,4.08,0.77,5.3,1.5l-1.26,3.53
		c-1.1-0.73-2.38-1.27-3.9-1.26c-2.56,0.01-3.82,1.84-3.82,3.73c0.01,2.01,0.74,3.1,3.67,5.09c3.42,2.18,6.11,4.84,6.12,8.92
		c0.03,5.9-3.98,8.78-8.78,8.8c-2.19,0.01-4.57-0.65-5.85-1.68L109.32,56.57z"/>
	<path class="st1" d="M165.4,27.9l-11.07,0.05l-0.03-7.79l31.51-0.14l0.03,7.79l-11.19,0.05l0.14,33.22l-9.25,0.04L165.4,27.9z"/>
	<path class="st1" d="M187.24,41.07c-0.02-4.38-0.09-7.24-0.29-9.79l7.91-0.03l0.39,5.53l0.24,0c1.5-4.39,5.08-6.23,8-6.24
		c0.85,0,1.28,0.06,1.95,0.17l0.04,8.7c-0.73-0.12-1.46-0.24-2.49-0.23c-3.41,0.01-5.71,1.79-6.31,4.71
		c-0.12,0.61-0.18,1.28-0.17,2.07l0.06,15.03l-9.25,0.04L187.24,41.07z"/>
	<path class="st1" d="M238.45,51.25c0.02,3.89,0.15,7.06,0.28,9.55l-8.03,0.03l-0.45-4.2h-0.18c-1.15,1.83-3.93,4.88-9.29,4.91
		c-6.08,0.03-10.48-3.73-10.52-12.91l-0.07-17.46l9.25-0.04l0.07,16c0.02,4.32,1.43,6.93,4.71,6.92c2.56-0.01,4.07-1.78,4.61-3.24
		c0.24-0.55,0.36-1.22,0.36-2.01l-0.08-17.7l9.25-0.04L238.45,51.25z"/>
	<path class="st1" d="M252.97,48.82c0.32,3.83,4.1,5.64,8.42,5.62c3.16-0.01,5.72-0.45,8.21-1.31l1.24,6.26
		c-3.04,1.29-6.74,1.91-10.76,1.93c-10.1,0.04-15.91-5.77-15.95-15.08c-0.03-7.54,4.68-15.9,14.96-15.94
		c9.61-0.04,13.3,7.43,13.33,14.79c0.01,1.58-0.17,2.98-0.29,3.65L252.97,48.82z M263.84,42.44c-0.01-2.25-1-6.02-5.2-6
		c-3.96,0.02-5.52,3.61-5.75,6.05L263.84,42.44z"/>
	<path class="st1" d="M282.72,47.29l-0.13-1.58c-0.13-3.1,0.82-6.27,3.55-9.57c1.94-2.32,3.51-4.33,3.5-6.34
		c-0.01-2.13-1.41-3.58-4.4-3.63c-2.07,0.01-4.44,0.69-6.08,1.85l-2.04-6.62c2.18-1.29,5.77-2.52,10.15-2.54
		c7.97-0.03,11.7,4.39,11.72,9.38c0.02,4.69-2.89,7.74-5.19,10.31c-2.18,2.5-3.14,4.88-3.07,7.62l0,1.1L282.72,47.29z M286.55,61.27
		c-3.22,0.01-5.42-2.35-5.44-5.51c-0.01-3.28,2.23-5.55,5.39-5.56c3.29-0.01,5.42,2.23,5.5,5.51c0.01,3.16-2.11,5.55-5.39,5.56
		H286.55z"/>
	<g>
		<g>
			<path class="st1" d="M130.71,46.2c-0.01-2.25,1.5-3.84,3.63-3.85c2.13-0.01,3.6,1.57,3.61,3.82c0.01,2.19-1.38,3.84-3.63,3.85
				C132.18,50.02,130.72,48.39,130.71,46.2z"/>
			<path class="st1" d="M143.3,46.14c-0.01-2.25,1.5-3.84,3.63-3.85c2.13-0.01,3.6,1.57,3.61,3.82c0.01,2.19-1.38,3.84-3.63,3.85
				C144.78,49.97,143.31,48.33,143.3,46.14z"/>
		</g>
	</g>
</g>
</svg>
