<?xml version="1.0" encoding="utf-8"?>
<!-- Generator: Adobe Illustrator 24.0.1, SVG Export Plug-In . SVG Version: 6.00 Build 0)  -->
<svg version="1.1" id="Capa_1" xmlns="http://www.w3.org/2000/svg" xmlns:xlink="http://www.w3.org/1999/xlink" x="0px" y="0px"
	 viewBox="0 0 246.19 74.92" style="enable-background:new 0 0 246.19 74.92;" xml:space="preserve">
<style type="text/css">
	.st0{fill:#606060;}
</style>
<g>
	<path class="st0" d="M31.95,26.76c0.05,1.24-0.74,2.07-1.94,2.08c-1.03,0-1.82-0.82-1.83-2.06c0-1.24,0.82-2.07,1.85-2.08
		C31.2,24.69,31.95,25.52,31.95,26.76z M28.63,51.97l-0.09-20.02l3.19-0.01l0.09,20.02L28.63,51.97z"/>
	<path class="st0" d="M35.69,48.63c0.71,0.45,1.95,1.03,3.23,1.02c1.82-0.01,2.93-1.13,2.92-2.91c-0.01-1.53-0.55-2.56-2.58-3.92
		c-2.61-1.68-4.03-3.37-4.04-5.69c-0.01-3.23,2.38-5.55,5.48-5.57c1.57-0.01,2.77,0.53,3.6,1.02l-0.86,2.4
		c-0.75-0.49-1.62-0.86-2.65-0.86c-1.74,0.01-2.6,1.25-2.59,2.53c0.01,1.37,0.5,2.11,2.5,3.46c2.32,1.48,4.15,3.29,4.16,6.06
		c0.02,4.01-2.7,5.97-5.97,5.98c-1.49,0.01-3.1-0.44-3.98-1.14L35.69,48.63z"/>
	<path class="st0" d="M58.47,26.52l0.02,5.29l3.85-0.02l0.01,2.44l-3.85,0.02l0.05,11.87c0.01,2.61,0.97,3.31,2.13,3.3
		c0.5,0,0.91-0.04,1.28-0.13l0.13,2.44c-0.58,0.21-1.32,0.34-2.36,0.34c-1.24,0-2.36-0.32-3.15-1.19c-0.79-0.91-1.21-2.27-1.22-5.04
		l-0.05-11.58l-2.44,0.01l-0.01-2.44l2.44-0.01l-0.02-4.38L58.47,26.52z"/>
	<path class="st0" d="M65.11,23.18l3.19-0.01l0.05,10.75l0.08,0c0.41-0.7,1.03-1.33,1.65-1.74c0.74-0.46,1.53-0.75,2.69-0.76
		c2.52-0.01,4.68,2.01,4.71,7.05l0.06,13.28l-3.19,0.01l-0.06-12.91c-0.01-2.44-0.56-4.75-2.71-4.75c-1.49,0.01-2.6,1.09-3.09,3.2
		c-0.08,0.46-0.12,1.03-0.12,1.53l0.06,12.95l-3.19,0.01L65.11,23.18z"/>
	<path class="st0" d="M85.31,26.53c0.05,1.24-0.74,2.07-1.93,2.08c-1.03,0-1.82-0.82-1.83-2.06c-0.01-1.24,0.82-2.07,1.85-2.08
		C84.56,24.46,85.31,25.29,85.31,26.53z M81.99,51.73L81.9,31.71l3.18-0.01l0.09,20.02L81.99,51.73z"/>
	<path class="st0" d="M89.04,48.39c0.71,0.45,1.95,1.03,3.23,1.02c1.82-0.01,2.93-1.13,2.92-2.91c-0.01-1.53-0.55-2.56-2.58-3.92
		c-2.61-1.68-4.03-3.37-4.04-5.69c-0.01-3.23,2.38-5.55,5.48-5.57c1.57-0.01,2.77,0.53,3.6,1.02l-0.86,2.4
		c-0.75-0.49-1.62-0.86-2.65-0.86c-1.74,0.01-2.6,1.25-2.59,2.53c0.01,1.37,0.51,2.11,2.5,3.46c2.32,1.48,4.15,3.29,4.16,6.06
		c0.02,4.01-2.7,5.97-5.97,5.98c-1.49,0.01-3.1-0.44-3.98-1.14L89.04,48.39z"/>
	<path class="st0" d="M127.18,28.9l-7.53,0.03l-0.02-5.29l21.43-0.09l0.02,5.29l-7.61,0.03l0.1,22.59l-6.29,0.03L127.18,28.9z"/>
	<path class="st0" d="M142.02,37.86c-0.01-2.98-0.06-4.92-0.19-6.66l5.38-0.02l0.26,3.76l0.17,0c1.02-2.98,3.46-4.23,5.44-4.24
		c0.58,0,0.87,0.04,1.32,0.12l0.03,5.92c-0.5-0.08-0.99-0.16-1.7-0.16c-2.32,0.01-3.88,1.22-4.29,3.2
		c-0.08,0.41-0.12,0.87-0.12,1.41l0.04,10.22l-6.29,0.03L142.02,37.86z"/>
	<path class="st0" d="M176.84,44.78c0.01,2.65,0.1,4.8,0.19,6.49l-5.46,0.02l-0.3-2.85h-0.12c-0.78,1.25-2.67,3.32-6.31,3.34
		c-4.14,0.02-7.13-2.53-7.15-8.78l-0.05-11.87l6.29-0.03l0.05,10.88c0.01,2.94,0.97,4.71,3.2,4.7c1.74-0.01,2.77-1.21,3.14-2.21
		c0.16-0.37,0.24-0.83,0.24-1.37l-0.05-12.04l6.29-0.03L176.84,44.78z"/>
	<path class="st0" d="M186.72,43.12c0.22,2.6,2.79,3.83,5.73,3.82c2.15-0.01,3.89-0.31,5.58-0.89l0.85,4.26
		c-2.06,0.88-4.59,1.3-7.32,1.31c-6.87,0.03-10.81-3.92-10.84-10.25c-0.02-5.13,3.18-10.81,10.17-10.84
		c6.54-0.03,9.04,5.05,9.06,10.05c0,1.08-0.12,2.03-0.2,2.48L186.72,43.12z M194.1,38.79c-0.01-1.53-0.68-4.09-3.53-4.08
		c-2.69,0.01-3.75,2.46-3.91,4.11L194.1,38.79z"/>
	<path class="st0" d="M206.94,42.08l-0.09-1.08c-0.09-2.11,0.56-4.26,2.41-6.5c1.32-1.58,2.39-2.95,2.38-4.31
		c-0.01-1.45-0.96-2.44-2.99-2.47c-1.41,0.01-3.02,0.47-4.13,1.26l-1.38-4.5c1.49-0.88,3.92-1.71,6.9-1.73
		c5.42-0.02,7.96,2.98,7.97,6.38c0.01,3.19-1.96,5.26-3.53,7.01c-1.48,1.7-2.14,3.32-2.09,5.18l0,0.74L206.94,42.08z M209.54,51.59
		c-2.19,0.01-3.69-1.6-3.7-3.75c-0.01-2.23,1.52-3.77,3.67-3.78c2.23-0.01,3.69,1.52,3.74,3.75c0.01,2.15-1.43,3.77-3.67,3.78
		H209.54z"/>
	<g>
		<g>
			<path class="st0" d="M103.58,41.34c-0.01-1.53,1.02-2.61,2.47-2.62c1.45-0.01,2.45,1.07,2.45,2.6c0.01,1.49-0.94,2.61-2.47,2.62
				C104.59,43.94,103.59,42.83,103.58,41.34z"/>
			<path class="st0" d="M112.14,41.3c-0.01-1.53,1.02-2.61,2.47-2.62c1.45-0.01,2.45,1.06,2.45,2.6c0.01,1.49-0.94,2.61-2.47,2.62
				C113.15,43.91,112.15,42.79,112.14,41.3z"/>
		</g>
	</g>
</g>
</svg>
