<?xml version="1.0" encoding="utf-8"?>
<!-- Generator: Adobe Illustrator 24.0.1, SVG Export Plug-In . SVG Version: 6.00 Build 0)  -->
<svg version="1.1" id="Capa_1" xmlns="http://www.w3.org/2000/svg" xmlns:xlink="http://www.w3.org/1999/xlink" x="0px" y="0px"
	 viewBox="0 0 45.63 49.04" style="enable-background:new 0 0 45.63 49.04;" xml:space="preserve">
<style type="text/css">
	.st0{fill:#00BC00;}
</style>
<path class="st0" d="M44.1,17.58l-9.52-9.52c-0.32-0.32-0.84-0.33-1.17-0.02c-0.74,0.7-4.21,3.97-4.26,4.02c0,0-0.01,0.01-0.01,0.01
	c-0.82,0.82-1.63,1.19-2.63,1.19c-2.03,0-3.59,0.57-4.88,1.8c-1.06-1-2.26-1.52-3.94-1.7L13.5,9.16c-0.33-0.33-0.86-0.33-1.19,0
	L1.53,19.94c-0.32,0.32-0.33,0.84-0.02,1.17c0.01,0.01,0.01,0.01,0.02,0.02c0,0,7.01,7,7.02,7.01l-0.3,0.3
	c-1.15,1.15-1.15,3.01,0,4.16c0.54,0.54,1.29,0.87,2.11,0.86c-0.01,0.81,0.3,1.56,0.86,2.11c0.57,0.57,1.33,0.87,2.11,0.86
	c-0.01,0.81,0.3,1.56,0.86,2.11c0.54,0.54,1.29,0.87,2.11,0.86c-0.01,0.81,0.3,1.56,0.86,2.11c1.15,1.15,3.02,1.15,4.16,0l0.3-0.3
	l0.3,0.3c1.15,1.15,3.02,1.15,4.16,0c0.56-0.56,0.87-1.3,0.86-2.11c0.8,0.01,1.55-0.3,2.11-0.86c0.58-0.58,0.87-1.35,0.86-2.11
	c0.82,0.01,1.56-0.31,2.11-0.86c0.56-0.56,0.87-1.31,0.86-2.11c0.78,0.01,1.54-0.29,2.11-0.86c1.15-1.15,1.15-3.01,0-4.16l-0.3-0.3
	c5.86-5.86-1.55,1.57,9.38-9.37C44.43,18.44,44.43,17.91,44.1,17.58z M3.31,20.53l9.59-9.59l3.23,3.23l-9.59,9.59L3.31,20.53z
	 M9.44,31.41c-0.49-0.49-0.49-1.29,0-1.78l2.97-2.97c0.49-0.49,1.29-0.49,1.78,0c0.49,0.49,0.49,1.29,0,1.78l-2.97,2.97
	C10.74,31.9,9.94,31.9,9.44,31.41z M12.42,34.39c-0.49-0.49-0.49-1.29,0-1.78l2.97-2.97c0.49-0.49,1.29-0.49,1.78,0
	c0.49,0.49,0.49,1.29,0,1.78c0,0,0,0,0,0l-2.97,2.97C13.71,34.88,12.91,34.88,12.42,34.39z M15.39,37.36
	c-0.49-0.49-0.49-1.29,0-1.78l2.97-2.97c0.49-0.49,1.29-0.49,1.78,0c0.49,0.48,0.5,1.28,0,1.78c0,0,0,0,0,0l-2.97,2.97
	C16.69,37.85,15.88,37.85,15.39,37.36z M18.37,40.33c-0.49-0.49-0.49-1.29,0-1.78l2.97-2.97c0.49-0.49,1.29-0.49,1.78,0
	c0.5,0.5,0.49,1.3,0,1.78l-2.97,2.97C19.66,40.82,18.86,40.82,18.37,40.33z M24.91,40.33c-0.49,0.49-1.29,0.49-1.78,0l-0.3-0.3
	l1.49-1.49c0.1-0.1,0.19-0.21,0.28-0.32l0.32,0.32c0,0,0,0,0,0l0,0C25.4,39.04,25.4,39.84,24.91,40.33z M33.83,31.41
	c-0.49,0.49-1.29,0.49-1.78,0l-3.87-3.87c-0.33-0.33-0.86-0.33-1.19,0c-0.33,0.33-0.33,0.86,0,1.19l3.87,3.87
	c0.49,0.49,0.49,1.29,0,1.78c-0.49,0.49-1.29,0.49-1.78,0l-3.87-3.87c-0.33-0.33-0.86-0.33-1.19,0c-0.33,0.33-0.33,0.86,0,1.19
	l3.87,3.87c0.49,0.49,0.49,1.29,0,1.78c-0.24,0.24-0.55,0.37-0.89,0.37c-0.8,0-1.06-0.63-1.82-1.29c-0.01-0.77-0.31-1.5-0.86-2.05
	c-0.56-0.56-1.31-0.87-2.11-0.86c0.01-0.81-0.3-1.56-0.86-2.11c-0.58-0.58-1.35-0.87-2.11-0.86c0.02-1.66-1.33-2.99-2.97-2.98
	c0.01-0.82-0.31-1.56-0.86-2.11c-1.15-1.15-3.02-1.15-4.16,0l-1.49,1.49l-2-2l9.9-9.9c1.23,0.14,2.05,0.49,2.81,1.2l-2.38,2.38
	c-1.31,1.31-1.31,3.45,0,4.76c1.31,1.31,3.45,1.31,4.76,0L25.21,21c1.54,1.54,7.5,7.5,8.62,8.63
	C34.32,30.12,34.32,30.92,33.83,31.41z M33.54,26.95l-7.14-7.14l0.59-0.59c0.33-0.33,0.33-0.86,0-1.19c-0.33-0.33-0.86-0.33-1.19,0
	l-4.16,4.16c-0.66,0.66-1.72,0.66-2.38,0c-0.66-0.66-0.66-1.72,0-2.38c0.86-0.86,2.56-2.56,3.43-3.42c1-1,2.18-1.44,3.83-1.44
	c1.19,0,2.22-0.36,3.18-1.11l8.38,8.59C32.6,27.88,33.68,26.81,33.54,26.95z M39.26,21.23l-8.32-8.54l3.04-2.86l8.34,8.35
	L39.26,21.23z"/>
</svg>
